#!OML:ASF E:\Steps\Project 1\Capture day 1\Session 2\Subject.ASF
:FULLY-SPECIFIED
:DEGREES
338
root -0.305934 17.238 17.4555 -165.133 -14.5374 183.791
lowerback -25.5032 -5.7261 -11.4992
upperback 0.765464 -4.42297 0.379801
thorax 15.388 -2.97947 4.97694
lowerneck 5.18373 -8.32171 -2.70402
upperneck 22.0672 -15.999 6.0862
head 6.64938 -8.66318 1.54719
rclavicle -7.35503e-015 3.18055e-014
rhumerus -53.4214 -20.2156 -69.3228
rradius 30.3299
rwrist -0.311919
rhand -7.77136 -52.8741
rfingers 7.12502
rthumb 18.1288 -82.0493
lclavicle -7.35503e-015 3.18055e-014
lhumerus -37.3467 -7.68651 73.0755
lradius 32.6297
lwrist 2.38802
lhand -20.4743 -11.9407
lfingers 7.12502
lthumb 5.8819 17.9577
rfemur -41.4507 2.28564 -0.615399
rtibia 10.9453
rfoot -14.3452 -22.6271
rtoes -21.0407
lfemur -9.22322 -18.8344 -14.045
ltibia 26.0985
lfoot -24.7879 -5.14769
ltoes -24.8948
339
root -0.269967 17.2146 17.367 -165.125 -14.7943 183.936
lowerback -25.6896 -5.78126 -11.3731
upperback 0.756442 -4.50847 0.334406
thorax 15.4713 -3.00914 4.81309
lowerneck 4.771 -7.97208 -3.24806
upperneck 23.056 -15.8827 6.46226
head 7.10833 -8.64178 1.68853
rclavicle -4.36332e-014 -1.90833e-014
rhumerus -53.6284 -20.0457 -69.5577
rradius 30.4129
rwrist -0.46972
rhand -8.25881 -51.7826
rfingers 7.12502
rthumb 17.6598 -81.0006
lclavicle -4.36332e-014 -1.90833e-014
lhumerus -37.447 -8.25668 73.0622
lradius 33.2898
lwrist 2.55725
lhand -21.2213 -10.0769
lfingers 7.12502
lthumb 5.16064 19.8403
rfemur -41.3803 2.21714 -0.633686
rtibia 10.752
rfoot -14.0139 -22.6889
rtoes -20.6031
lfemur -8.97412 -18.8743 -13.6933
ltibia 26.1158
lfoot -24.8787 -4.94958
ltoes -26.6458
340
root -0.227884 17.1889 17.2739 -165.285 -15.0086 184.224
lowerback -25.7626 -5.7707 -11.1721
upperback 0.781128 -4.54018 0.314851
thorax 15.5279 -3.0086 4.66717
lowerneck 5.51151 -8.48214 -2.63112
upperneck 22.3399 -16.4064 6.14964
head 6.71031 -8.89076 1.54116
rclavicle -2.34566e-014 -3.18055e-014
rhumerus -53.9585 -19.878 -69.8278
rradius 30.6485
rwrist -0.862235
rhand -7.84723 -55.8411
rfingers 7.12502
rthumb 18.0558 -85.023
lclavicle -2.34566e-014 -3.18055e-014
lhumerus -37.3828 -8.48964 72.7621
lradius 33.255
lwrist 2.17138
lhand -21.5292 -11.3656
lfingers 7.12502
lthumb 4.86338 18.5586
rfemur -41.2779 2.12505 -0.268662
rtibia 10.8899
rfoot -13.4614 -22.6822
rtoes -22.4959
lfemur -8.55172 -18.7524 -13.1783
ltibia 26.045
lfoot -24.9883 -4.50999
ltoes -29.8885
341
root -0.177252 17.163 17.1777 -165.718 -15.3313 184.796
lowerback -25.6169 -5.72244 -10.8385
upperback 0.860932 -4.58885 0.396485
thorax 15.5492 -3.00638 4.57006
lowerneck 6.00585 -8.77358 -2.21617
upperneck 21.879 -16.6892 5.98129
head 6.44989 -9.0236 1.46363
rclavicle -3.32964e-014 -1.43125e-014
rhumerus -54.3627 -19.916 -69.8783
rradius 30.8757
rwrist -1.10666
rhand -7.16152 -55.4214
rfingers 7.12502
rthumb 18.7155 -84.5411
lclavicle -3.32964e-014 -1.43125e-014
lhumerus -37.3411 -8.96185 72.5968
lradius 33.4385
lwrist 2.12028
lhand -21.8326 -11.9073
lfingers 7.12502
lthumb 4.57038 18.0234
rfemur -40.9213 2.48298 0.261283
rtibia 10.9284
rfoot -12.9594 -23.0295
rtoes -24.0281
lfemur -7.97749 -18.5978 -12.2867
ltibia 25.9788
lfoot -25.1356 -4.51656
ltoes -30.7179
342
root -0.129391 17.1393 17.0842 -165.992 -15.6915 185.105
lowerback -25.439 -5.75639 -10.7346
upperback 0.863281 -4.68934 0.450038
thorax 15.4811 -3.04158 4.54582
lowerneck 6.34457 -8.8498 -1.99772
upperneck 21.5709 -16.702 5.88277
head 6.27068 -9.03102 1.43682
rclavicle -3.69739e-014 -1.90833e-014
rhumerus -54.7803 -19.7843 -69.8891
rradius 31.0936
rwrist -1.16061
rhand -6.57379 -54.2858
rfingers 7.12502
rthumb 19.2807 -83.35
lclavicle -3.69739e-014 -1.90833e-014
lhumerus -37.4003 -9.29596 72.4631
lradius 33.7327
lwrist 2.20067
lhand -21.6262 -11.8861
lfingers 7.12502
lthumb 4.76968 18.0402
rfemur -40.5757 2.5573 0.510797
rtibia 10.7831
rfoot -12.6592 -23.1676
rtoes -24.544
lfemur -7.59262 -18.6721 -11.7029
ltibia 26.1094
lfoot -25.3476 -4.9391
ltoes -28.9483
